# xmcd
#
# Track frame offsets:
#	150
#	16537
#	29274
#	40953
#	57297
#	66312
#	80789
#	95421
#	108366
#	115782
#
# Disc length: 1728 seconds
#
# Revision: 0
# Processed by: cddbd v1.5.2PL0 Copyright (c) Steve Scherf et al.
# Submitted via: audiograbber 1.83.01
#
DISCID=7a06be0a
DTITLE=Sammy Kershaw - Honky Tonk Boots
DYEAR=2006
DGENRE=Country
TTITLE0=Tennessee Girl
TTITLE1=Honky Tonk Boots
TTITLE2=One Step at a Time
TTITLE3=Evangeline
TTITLE4=Leavin' Made Easy
TTITLE5=Baby's Got Her Blue Jeans On
TTITLE6=High Society
TTITLE7=The Battle
TTITLE8=Mama's Got a Tattoo
TTITLE9=Cantaloupes on Mars
EXTD=
EXTT0=
EXTT1=
EXTT2=
EXTT3=
EXTT4=
EXTT5=
EXTT6=
EXTT7=
EXTT8=
EXTT9=
PLAYORDER=
